<svg xmlns="http://www.w3.org/2000/svg" width="39.086" height="39.077" viewBox="0 0 39.086 39.077">
  <path id="Icon_awesome-instagram" data-name="Icon awesome-instagram" d="M19.542,11.757A10.019,10.019,0,1,0,29.561,21.776,10,10,0,0,0,19.542,11.757Zm0,16.533a6.514,6.514,0,1,1,6.514-6.514,6.525,6.525,0,0,1-6.514,6.514ZM32.308,11.348a2.337,2.337,0,1,1-2.337-2.337A2.331,2.331,0,0,1,32.308,11.348Zm6.636,2.372c-.148-3.13-.863-5.9-3.157-8.188s-5.057-3-8.188-3.157c-3.226-.183-12.9-.183-16.123,0-3.122.148-5.895.863-8.188,3.148s-3,5.057-3.157,8.188c-.183,3.226-.183,12.9,0,16.123.148,3.13.863,5.9,3.157,8.188s5.057,3,8.188,3.157c3.226.183,12.9.183,16.123,0,3.13-.148,5.9-.863,8.188-3.157s3-5.057,3.157-8.188c.183-3.226.183-12.888,0-16.114ZM34.776,33.3a6.6,6.6,0,0,1-3.715,3.715c-2.572,1.02-8.676.785-11.519.785s-8.955.227-11.519-.785A6.6,6.6,0,0,1,4.309,33.3c-1.02-2.572-.785-8.676-.785-11.519s-.227-8.955.785-11.519A6.6,6.6,0,0,1,8.023,6.543c2.572-1.02,8.676-.785,11.519-.785s8.955-.227,11.519.785a6.6,6.6,0,0,1,3.715,3.715c1.02,2.572.785,8.676.785,11.519S35.8,30.732,34.776,33.3Z" transform="translate(0.005 -2.238)" fill="#e5e2d8"/>
</svg>
