<?xml version="1.0" encoding="utf-8"?>
<!-- Generator: Adobe Illustrator 25.2.0, SVG Export Plug-In . SVG Version: 6.00 Build 0)  -->
<svg version="1.1" id="Camada_1" xmlns="http://www.w3.org/2000/svg" xmlns:xlink="http://www.w3.org/1999/xlink" x="0px" y="0px"
	 viewBox="0 0 424.7 133.6" style="enable-background:new 0 0 424.7 133.6;" xml:space="preserve">
<style type="text/css">
	.st0{fill:#064B04;}
</style>
<path class="st0" d="M107.1,119.4c1.4-0.1,2.8,0.6,3.6,1.7c0,0.1,0.1,0.1,0.2,0.1c0.1,0,0.1,0,0.2,0l0.4-0.3c0.1-0.1,0.1-0.2,0-0.3
	c-1-1.4-2.6-2.2-4.3-2.1c-3.2,0.3-5.6,3.1-5.3,6.3c0.2,2.8,2.5,5.1,5.3,5.3c1.7,0.1,3.4-0.8,4.3-2.3c0.1-0.1,0.1-0.2,0-0.3l-0.4-0.3
	c-0.1,0-0.1-0.1-0.2,0c-0.1,0-0.1,0-0.2,0.1c-0.8,1.2-2.1,1.9-3.6,1.9c-2.7-0.3-4.6-2.7-4.3-5.3
	C103.1,121.5,104.9,119.7,107.1,119.4L107.1,119.4z"/>
<path class="st0" d="M152,118.4c-1.5,0-2.9,1-3.5,2.3c-0.6-1.4-2-2.3-3.5-2.3c-1.2,0-2.3,0.6-3,1.6v-1.3c0-0.1-0.1-0.3-0.3-0.3h-0.5
	c-0.1,0-0.3,0.1-0.3,0.3v11c0,0.1,0.1,0.3,0.3,0.3h0.5c0.1,0,0.3-0.1,0.3-0.3V123c-0.3-1.7,0.9-3.3,2.5-3.5c1.7-0.3,3.3,0.9,3.5,2.5
	c0.1,0.3,0.1,0.7,0,1v6.6v0.2c0,0.1,0.1,0.2,0.3,0.2h0.4c0.1,0,0.1,0,0.2-0.1c0-0.1,0.1-0.1,0.1-0.2V123c-0.3-1.7,0.9-3.2,2.6-3.5
	s3.2,0.9,3.5,2.6c0,0.3,0,0.6,0,0.9v6.6v0.2c0,0.1,0.1,0.2,0.3,0.2h0.4c0.1,0,0.1,0,0.2-0.1c0-0.1,0.1-0.1,0.1-0.2V123
	C156.2,120.6,154.5,118.6,152,118.4C152.1,118.4,152.1,118.4,152,118.4z"/>
<path class="st0" d="M165.2,118.4c-3.2,0.3-5.6,3.1-5.3,6.3c0.2,2.8,2.5,5.1,5.3,5.3h0.1c1.8,0,3.5-0.8,4.5-2.3
	c0.1-0.1,0.1-0.3,0-0.4l0,0l-0.4-0.3c-0.1,0-0.1-0.1-0.2,0c-0.1,0-0.1,0-0.2,0.1c-0.9,1.3-2.3,2-3.9,2c-2.3-0.1-4.2-2-4.3-4.3h9.4
	c0.1,0,0.3-0.1,0.3-0.3v-0.2C170.7,121.2,168.3,118.6,165.2,118.4z M160.9,123.7c0.1-2.4,2.1-4.2,4.5-4.1c2.2,0.1,4,1.9,4.1,4.1
	H160.9z"/>
<path class="st0" d="M132.9,123.7c-1.8-0.6-3.4-1.1-3.4-2.2s1.4-2.1,3.1-2.1s3.1,1,3.1,2.1c0,0.1,0.1,0.3,0.3,0.3h0.5
	c0.1,0,0.3-0.1,0.3-0.3c0-1.7-1.8-3.1-4.1-3.1c-2.3,0-4.1,1.4-4.1,3.1s2.2,2.5,4.3,3.2c1.8,0.6,3.4,1.1,3.4,2.2s-1.6,2.1-3.6,2.1
	s-3.6-1-3.6-2.1c0-0.1-0.1-0.3-0.3-0.3h-0.5c-0.1,0-0.2,0.1-0.3,0.3c0,1.7,2,3.1,4.5,3.1s4.5-1.4,4.5-3.1S135,124.4,132.9,123.7z"/>
<path class="st0" d="M119.8,118.4c-3.2-0.3-6,2.1-6.3,5.3c-0.3,3.2,2.1,6,5.3,6.3c3.2,0.3,6-2.1,6.3-5.3c0-0.2,0-0.3,0-0.5
	C125.2,121.2,122.9,118.6,119.8,118.4z M119.8,129c-2.7,0.3-5-1.7-5.3-4.3c-0.3-2.7,1.7-5,4.3-5.3c2.7-0.3,5,1.7,5.3,4.3
	c0,0.2,0,0.3,0,0.5C124.3,126.7,122.3,128.9,119.8,129z"/>
<path class="st0" d="M179.3,118.4H176V116c0-0.1-0.1-0.3-0.3-0.3h-0.5c-0.1,0-0.3,0.1-0.3,0.3v2.4h-1.8c-0.1,0-0.3,0.1-0.3,0.3v0.5
	c0,0.1,0.1,0.3,0.3,0.3h1.8v7.4c0,2,1.5,3.1,4,3.1h0.2c0.1,0,0.3-0.1,0.3-0.3v-0.5c0-0.1-0.1-0.3-0.3-0.3h-0.2c-1.4,0-3-0.4-3-2.2
	v-7.4h3.2c0.1,0,0.3-0.1,0.3-0.3v-0.5C179.5,118.6,179.4,118.4,179.3,118.4C179.3,118.4,179.3,118.4,179.3,118.4z"/>
<path class="st0" d="M335,113.6h0.5c0.1,0,0.3,0.1,0.3,0.3v15.9c0,0.1-0.1,0.3-0.3,0.3H335c-0.1,0-0.3-0.1-0.3-0.3v-15.9
	C334.8,113.7,334.9,113.6,335,113.6z"/>
<path class="st0" d="M317.6,118.4h-0.2c-1.9-0.1-3.7,0.8-4.8,2.3v-2c0-0.1-0.1-0.3-0.3-0.3h-0.5c-0.1,0-0.3,0.1-0.3,0.3v11
	c0,0.1,0.1,0.3,0.3,0.3h0.5c0.1,0,0.3-0.1,0.3-0.3v-5.6c-0.2-2.4,1.7-4.5,4.1-4.7c0.2,0,0.4,0,0.7,0h0.2c0.1,0,0.3-0.1,0.3-0.3v-0.5
	C317.8,118.5,317.7,118.4,317.6,118.4z"/>
<path class="st0" d="M329.7,118.4h-0.5c-0.1,0-0.3,0.1-0.3,0.3v2.1c-0.8-1.4-2.3-2.3-3.9-2.3c-2.8,0-5,2.6-5,5.8s2.3,5.8,5,5.8
	c1.6-0.1,3.1-0.9,3.9-2.3v2.1c0,0.1,0.1,0.3,0.3,0.3h0.5c0.1,0,0.2-0.1,0.3-0.3v-11C330,118.6,329.9,118.5,329.7,118.4
	C329.7,118.4,329.7,118.4,329.7,118.4z M325.1,129c-2.3,0-4.1-2.2-4.1-4.8s1.8-4.8,4.1-4.8s3.9,2.1,3.9,4.8S327.3,129,325.1,129z"/>
<path class="st0" d="M187.3,118.4c-3.2-0.3-6,2.1-6.3,5.3c-0.3,3.2,2.1,6,5.3,6.3c3.2,0.3,6-2.1,6.3-5.3c0-0.2,0-0.3,0-0.5
	C192.7,121.2,190.4,118.6,187.3,118.4z M187.3,129c-2.7,0.3-5-1.7-5.3-4.3c-0.3-2.7,1.7-5,4.3-5.3s5,1.7,5.3,4.3c0,0.2,0,0.3,0,0.5
	C191.8,126.7,189.8,128.9,187.3,129z"/>
<path class="st0" d="M102.7,28.5c0-6-2.2-9-6.5-9c-2.9,0-6.5,1.1-10.6,3.4C81,25.5,76.8,28.9,73.2,33c-7.3,7.9-14.4,18.3-21,30.9
	c-6.9,13.1-13.2,26.6-18.6,40.4c0-0.8-0.1-1.6-0.1-2.4c0.1-8.2,1.4-16.3,3.9-24.1c3.1-9.9,7.1-19.5,12-28.6C54,40.3,59.2,32,65,24
	c5-3.5,8.4-6.6,10.1-9.1s2.7-4.5,2.7-5.8c0.1-1-0.6-1.9-1.6-2.1c-0.1,0-0.3,0-0.4,0c-2.5,0-5.8,2.4-9.9,7.4c-3.3,4-5.8,7.1-7.7,9.1
	c-1.6,1.8-3.3,3.3-5.2,4.7c-2,1.4-4.1,2.7-6.3,3.9C37.9,37,29.6,42.4,21.5,48.2C7.2,58.8,0,69.8,0,80.9c0,3.5,0.7,7,1.9,10.3
	c0.3,0.8,1.1,1.1,1.9,0.9c0.6-0.2,1-0.8,1-1.4c0-0.5-0.1-1-0.3-1.4c-1-2.6-1.5-5.4-1.4-8.3c0-2.2,0.3-4.3,0.9-6.4
	c2.6-8.4,9.3-16.6,19.9-24.4C30,45.7,38,40.5,47.8,34.7c2-1.2,4.1-2.5,6.1-3.7C43.2,47.8,35.6,64.1,31.4,79.2
	c-2.1,7.3-3.3,14.8-3.4,22.3c0,1.7,0.1,3.4,0.3,5.1c0,1.5,0.6,2.9,1.5,4c0.8,0.9,1.5,1.3,2,1.3H32h0.5c0.7,0.1,1.4-0.3,1.7-1
	C40.1,95.4,47,80.1,54.9,65.3C61.4,53,68.2,43,75.1,35.3c3.2-3.7,6.9-6.9,11-9.6c3.3-2,6-3,8-3c2.2,0,3.3,1.9,3.3,5.7
	s-1.5,9.3-4.4,16.5c-1.2,3.1-2.8,6.6-4.6,10.4c-2.7,5.8-5.3,12-7.9,18.5c-2.1,5.1-3.7,10.5-4.7,16c-0.5,2.8-0.8,5.7-0.9,8.6
	c0,5.1,0.8,9.1,2.4,11.9c1.3,2.1,2.4,3.4,3.5,3.8c0.8,0.4,1.6,0.6,2.5,0.7c0.5,0,0.9-0.1,1.4-0.4c0.4-0.2,0.7-0.6,0.7-1.1
	c0-0.4-0.2-0.8-0.4-1.1c-1.3-1.5-2.3-3.1-3.2-4.9c-0.8-1.8-1.1-4.7-1.1-8.8c0-7.3,2.4-16.8,7-28.1c2.2-5.2,4.3-10.1,6.4-14.6
	c5-10.8,7.8-18.4,8.3-22.5C102.6,31.9,102.7,30.2,102.7,28.5z"/>
<path class="st0" d="M350.4,45.5c4.1,6.5,10.1,9.8,18,9.8h0.5c2.7,0,5.4-0.6,6.4-4.1c0.7-2,1.1-4.2,1.1-6.3c0.1-4.5-1.6-8.8-4.6-12
	c-6.1-6.5-14-10.3-25-11.8c-2.2-0.3-3.3-0.2-4,0.5s-0.8,1.8-0.5,3.9C343.3,32,345.9,38.4,350.4,45.5z M367.5,35.5
	c4.3,4.2,4.3,9.3,3.9,14.6c0,0.3-0.1,0.5-0.3,0.7c-0.3,0.2-0.7,0.2-1,0.1h-0.4c-7-0.2-11.7-2.5-14.8-7.5c-3.3-5.2-5.7-10.9-7.1-16.9
	C356.8,28.1,362.7,30.8,367.5,35.5L367.5,35.5z"/>
<path class="st0" d="M379.7,31.7h0.1c0.1,0,0.2,0,0.2-0.1c3-4.7,7.1-8.7,11.9-11.6l0.8-0.5c0.7-0.5,1.2-1.3,1.4-2.2
	c0.1-0.7,0-1.4-0.5-2c-0.9-1.1-3-0.9-4.2,0.1c-4.9,4.2-8.3,9.8-9.8,16C379.6,31.5,379.6,31.6,379.7,31.7z"/>
<path class="st0" d="M360.8,19.4l0.8,0.5c4.8,2.9,8.9,6.9,11.9,11.6c0,0.1,0.1,0.1,0.2,0.1h0.1c0.1,0,0.2-0.2,0.1-0.3
	c-1.5-6.3-4.9-11.9-9.8-16c-1.3-1-3.3-1.2-4.2-0.1c-0.4,0.6-0.6,1.3-0.5,2C359.6,18.1,360,18.9,360.8,19.4z"/>
<path class="st0" d="M376.7,27.2c0.1,0,0.2,0,0.2-0.1c1.7-3,2.7-6.3,2.8-9.8c0.2-3.5-0.8-6.9-2.8-9.8c-0.1-0.1-0.3-0.1-0.4,0
	c0,0,0,0,0,0c-2,2.9-2.9,6.3-2.8,9.8c0.1,3.4,1,6.8,2.8,9.8C376.6,27.2,376.7,27.2,376.7,27.2z"/>
<path class="st0" d="M400.6,52.4c-0.1,0.1-0.1,0.2-0.1,0.3c0,0.1,0.1,0.1,0.2,0.1h0.1c6.2-1.5,11.8-5,16-9.8c1-1.3,1.2-3.3,0.1-4.2
	c-0.6-0.4-1.3-0.6-2-0.5c-0.9,0.1-1.7,0.6-2.2,1.4l-0.5,0.8C409.3,45.3,405.3,49.4,400.6,52.4z"/>
<path class="st0" d="M27.4,25.6c0.6,0.4,1.3,0.7,2,0.6c0.2,0,0.4,0,0.6,0l1-0.2c5.4-1.3,11.1-1.4,16.6-0.2c0.1,0,0.2,0,0.3-0.1
	c0-0.1,0-0.2-0.1-0.3C42.3,22,35.9,20.5,29.5,21c-1.6,0.2-3.2,1.4-3,2.9C26.5,24.6,26.9,25.2,27.4,25.6z"/>
<path class="st0" d="M377.1,45.1c-0.1,1.7,0.1,3.4,0.7,5c0.1,0.3,0.2,0.5,0.3,0.8c0.6,1.9,1.4,4,4.1,4.2c1.1,0.1,2.2,0.1,3.4,0.1
	c4.8,0,9.8-1,13.9-5.2c4.4-4.5,7.1-10.2,9.1-15.1c1.4-3.4,2.3-7,2.6-10.7c0.2-1-0.1-2-0.8-2.8c-0.6-0.5-1.5-0.7-2.3-0.6
	c-9.9,1.2-17.4,4.1-23.5,9.2C379.4,34.4,376.9,39.3,377.1,45.1z M395.2,29.4c3.3-1.4,6.7-2.4,10.3-2.9c-0.1,1.7-0.5,3.4-1.3,4.9
	c-0.1,0.4-0.3,0.7-0.4,1.1c-2.1,5.6-4.2,10.1-7.8,13.9s-8.5,4.2-13.1,4.4c-0.2,0-0.5,0-0.6-0.1c-0.2-0.2-0.2-0.5-0.2-0.9
	c0-0.2,0-0.4,0-0.6C380.8,38.5,385.9,33.8,395.2,29.4z"/>
<path class="st0" d="M46.6,20.5L46.6,20.5c0.1,0,0.1,0,0.2-0.1c0.1-0.1,0.1-0.1,0.1-0.2c-0.9-3.3-2.6-6.4-4.9-8.8
	c-2.3-2.6-5.4-4.3-8.9-4.9c-0.1,0-0.3,0.1-0.3,0.2c0,0,0,0.1,0,0.1c0.6,3.4,2.4,6.5,4.9,8.9C40.2,18,43.2,19.7,46.6,20.5z"/>
<path class="st0" d="M52,21.5L52,21.5c0.2,0,0.3-0.2,0.2-0.3C51,15.7,51,10,52.4,4.6l0.2-1c0.2-0.9-0.1-1.8-0.6-2.5
	c-0.4-0.6-1-1-1.7-1.1c-1.5-0.2-2.7,1.5-2.9,3c-0.5,6.4,1,12.8,4.4,18.3C51.8,21.4,51.9,21.5,52,21.5z"/>
<path class="st0" d="M338.7,58.7c3.4-0.1,6.8-1,9.8-2.8c0.1,0,0.1-0.1,0.1-0.2c0-0.1,0-0.2-0.1-0.2c-3-1.7-6.3-2.7-9.8-2.8
	c-3.5-0.2-6.9,0.8-9.8,2.8c-0.1,0-0.1,0.1-0.1,0.2c0,0.1,0,0.2,0.1,0.2C331.8,57.9,335.2,58.8,338.7,58.7z"/>
<path class="st0" d="M352.7,52.9L352.7,52.9c0.2,0,0.2-0.1,0.3-0.1c0-0.1,0-0.2-0.1-0.3c-4.7-3-8.7-7.1-11.6-11.9l-0.5-0.8
	c-0.5-0.7-1.3-1.3-2.2-1.4c-0.7-0.1-1.4,0-2,0.5c-1.1,1-0.9,3,0.1,4.2C340.8,47.9,346.4,51.4,352.7,52.9z"/>
<path class="st0" d="M376.6,83.5c-1.7,3-2.7,6.3-2.8,9.8c-0.1,3.5,0.8,6.9,2.8,9.8c0.1,0.1,0.2,0.1,0.4,0.1c0,0,0,0,0.1-0.1
	c1.9-2.9,2.9-6.3,2.8-9.8c-0.1-3.4-1-6.8-2.8-9.8C376.9,83.4,376.8,83.4,376.6,83.5C376.6,83.5,376.6,83.5,376.6,83.5z"/>
<path class="st0" d="M373.8,79c-0.1,0-0.2,0-0.3,0.1c-3,4.7-7.1,8.7-11.9,11.6l-0.8,0.5c-0.7,0.5-1.2,1.3-1.4,2.2
	c-0.1,0.7,0,1.4,0.5,2c0.5,0.5,1.1,0.8,1.8,0.8c0.9,0,1.7-0.3,2.4-0.9c4.9-4.2,8.3-9.8,9.8-16C374,79.2,373.9,79,373.8,79z"/>
<path class="st0" d="M352.9,59c0.1-0.1,0.1-0.2,0.1-0.3c0-0.1-0.2-0.2-0.3-0.2h-0.2c-1.3,0.1-4.8,0.4-11.7,5.8l-0.1,0.1
	c-2.9,2.3-28.5,22.5-34.3,22.5c-4.5,0-6.6-3-6.6-9.1c0-6.6,2.7-15.6,8.1-26.8c0.1-0.2,0.1-0.4,0.1-0.7c0-0.5-0.3-1-0.7-1.4
	c-0.7-0.8-1.7-1.3-2.8-1.3c-0.4,0-0.9,0.1-1.1,0.5l-6,7c-0.2-1.2-0.8-2.3-1.7-3c-1-0.8-2.2-1.2-3.4-1.2c-1.3,0-2.6,0.3-3.9,0.8
	c-3.2,1.3-5.9,3.7-7.6,6.7c-1.2,2-2.2,4.2-2.8,6.5c-6.3,5.7-11.5,10-15.4,13c-11.2,8.4-20.3,12.7-26.9,12.7
	c-1.9,0.1-3.8-0.8-4.9-2.3c-1.2-1.5-1.8-3.9-1.8-7c0-4.5,2-11.2,6-19.9c2.6-5.5,3.9-10.1,3.9-13.6c0-1-0.1-1.9-0.3-2.8
	c-0.7-2.5-2.2-3.8-4.6-3.8c-2.7,0-5.9,1.4-9.5,4.1c-4.5,3.5-8.5,7.7-11.6,12.5c-2.2,3.4-4.3,6.9-6.2,10.5c1.4-3.2,2.2-6.7,2.4-10.1
	c0-3.7-1.5-5.6-4.5-5.6c-2.8,0-6.1,2.3-9.9,7c-2.2,2.9-4.2,5.9-6,9c-1.8,3.1-3.6,6.4-5.2,9.5l-0.8,1.5c-0.1-0.7-0.1-1.5-0.1-2.2
	c0-4.4,1.6-9.9,4.7-16.2c1.6-3.3,3.2-6.3,4.7-9c1.9-3.4,2.2-4.2,2.2-4.4c0-0.6-0.2-1.1-0.6-1.5c-0.6-0.9-1.6-1.5-2.7-1.5
	c-0.5,0-1,0.3-1.3,0.8c-1,1.9-2.2,4.2-3.8,7.1c-2.3,4-4.3,8.1-6,12.4c-6.3,5.6-11.5,10-15.4,12.9c-8,5.9-14.3,9-18.6,9
	c-3.8,0-5.6-3-5.6-9.2c0-7.3,2.6-17.3,7.7-29.8c0.1-0.3,0.2-0.7,0.2-1.1c0-0.6-0.2-1.1-0.5-1.5c-0.6-1-1.7-1.6-2.9-1.7
	c-0.5,0-0.9,0.2-1.2,0.6v0.1l-1.7,3.7c-1.5,3.7-3.4,7.3-5.4,10.7c-1.9,3.3-4.5,6.3-7.4,8.8c-3.4,2.7-6,4.1-7.7,4.1c-2,0-3-0.9-3-2.8
	c0-4.7,2.4-11.4,7.2-19.9c0.2-0.4,0.3-0.8,0.4-1.2c0-0.5-0.2-1-0.5-1.4c-0.6-1-1.6-1.6-2.8-1.6c-0.5,0-1,0.3-1.2,0.7
	c-3.4,5.3-6.1,11-8,16.9c-0.6,1.9-0.9,3.9-0.9,5.9c-0.1,1.8,0.5,3.6,1.6,5c1.1,1.3,2.8,2,5.3,2c4.7,0,10.5-3.9,17.1-11.7
	c-1.4,4.7-2.1,9.5-2.3,14.4c0,2.2,0.4,4.4,1.2,6.5c1.6,3.9,4.5,5.9,8.9,5.9c4.5,0,9.8-1.9,15.8-5.7c6.2-4.1,12.2-8.7,17.7-13.8
	c-0.6,2.1-0.9,4.3-0.9,6.5c0,1.8,0.2,3.5,0.6,5.2c0.6,2.2,1.7,3.3,3.4,3.3c1.3-0.1,2.4-0.9,2.9-2c0.9-1.6,1.8-3.2,2.6-4.9
	c1.6-3,3.3-6,5-9c1.7-3,3.6-5.8,5.7-8.5c3.3-4.3,4.8-5.2,5.5-5.2c0.2,0,1,0,1,1.7c0,2.5-1,6.4-3.1,11.4s-2.9,8.4-2.9,10.3
	c0,0.9,0.4,1.8,1,2.4c0.7,0.6,1.7,0.9,2.6,0.9c0.9-0.1,1.7-0.7,2-1.5c1-1.8,2-3.7,2.9-5.6c2.6-5.2,5.4-10.3,8.5-15.2
	c3.1-4.9,7-9.1,11.5-12.6c2.5-1.9,4.4-2.9,5.8-2.9c0.4,0,1.5,0,1.5,2.4c0,3.1-1.5,8-4.4,14.4c-3.9,8.3-5.9,15-5.9,19.8
	c0,4.2,1.1,7.4,3.2,9.5c2.4,2.1,5.5,3.2,8.6,3.1c9.6,0,23.8-8.2,42.1-24.3c0,0.5,0,0.9,0,1.4c0,3.1,1.1,4.6,3.4,4.6
	c1.8,0,3.6-1,5.5-3c1.4-1.4,5.7-6.3,12.9-14.8c-3.2,7.6-4.9,14.3-4.9,19.8c0,2.2,0.4,4.3,1.3,6.3c1.8,4,5,6.1,9.6,6.1
	c4.9,0,11-2.5,18-7.5c3.7-2.6,7.5-5.8,13.3-10.5l5.1-4.2l1.5-1.2C346.1,63.8,349.4,61.3,352.9,59z M294.5,58.4
	c-9.2,10.9-11.2,12.7-11.5,12.8c-0.1,0-0.2,0-0.2-0.4c0-2.5,0.5-5,1.5-7.4c1.1-3,3-5.6,5.5-7.5c1-1,2.3-1.6,3.7-1.8
	c0.7,0,1.7,0.2,1.7,2.1C295.2,57.1,294.9,57.8,294.5,58.4z"/>
<path class="st0" d="M375.9,61.7c-1.2-5.4-2.7-6.5-8.3-6.3l-1,0.1c-3.1,0.2-6.2,0.4-8.9,2.3c-8.8,6.3-13.7,15.6-15.5,29.4
	c-0.1,0.7,0,1.4,0.5,2c0.6,0.5,1.3,0.8,2.1,0.7c0.3,0,0.5,0,0.8,0c9.2-1.1,16.7-4,22.8-8.8C375.1,75.6,377.6,69.2,375.9,61.7z
	 M357.9,81.4c-3.3,1.3-6.7,2.3-10.2,2.8c2.4-8.3,4.9-15.6,10.9-21.1c2.9-2.6,6.6-3,10.2-3.3l1.6-0.1h0.2c0.2,0,0.3,0,0.5,0.1
	c0.2,0.2,0.2,0.6,0.2,1c0,0.2,0,0.3,0,0.5C372.6,71,369,76.2,357.9,81.4L357.9,81.4z"/>
<path class="st0" d="M400.8,58.6c-0.1,0-0.2,0-0.3,0.1c0,0.1,0,0.2,0.1,0.3c4.7,3,8.7,7.1,11.6,11.9l0.5,0.8
	c0.5,0.7,1.3,1.2,2.2,1.4h0.5c0.5,0,1.1-0.2,1.5-0.5c1.2-0.9,0.9-3-0.1-4.2C412.7,63.5,407.1,60,400.8,58.6z"/>
<path class="st0" d="M424.6,55.5c-1.7-1.2-4.6-2.8-9.8-2.8c-3.4,0.1-6.8,1-9.7,2.8c-0.1,0-0.1,0.1-0.1,0.2c0,0.1,0,0.2,0.1,0.2
	c3,1.7,6.3,2.7,9.7,2.8c5.2,0,8-1.6,9.8-2.8c0.1,0,0.1-0.1,0.1-0.2C424.7,55.6,424.6,55.5,424.6,55.5z"/>
<path class="st0" d="M403.3,65.3c-4.5-7.1-10.4-10.4-17.8-9.9h-1c-2-0.1-4.3-0.1-5.5,2.3c-3.1,6.5-2.7,12.8,1.3,18
	c5.6,7.6,13.8,11.8,26.3,13.7c0.6,0.1,1.3,0.2,1.9,0.2c0.8,0.1,1.5-0.2,2.1-0.7c0.7-0.7,0.8-1.9,0.5-4.1
	C409.9,77.9,407.2,71.2,403.3,65.3z M390.5,78.7c-6.7-4.2-9.5-10-8.4-17.9c0.1-1,0.5-1.3,1.3-1.3h0.3c5.2,0.3,11.1,1.5,14.9,7.5
	c3.3,5.2,5.7,11,7.2,17C400.9,83.2,395.5,81.8,390.5,78.7z"/>
<path class="st0" d="M392.8,91.2l-0.8-0.5c-4.8-2.9-8.9-6.9-11.9-11.6c-0.1-0.1-0.2-0.1-0.3-0.1c-0.1,0.1-0.2,0.2-0.1,0.3
	c1.5,6.3,4.9,11.9,9.8,16c0.7,0.5,1.6,0.8,2.4,0.9c0.7,0,1.3-0.2,1.8-0.8c0.4-0.6,0.6-1.3,0.5-2C394,92.5,393.5,91.7,392.8,91.2z"/>
<path class="st0" d="M225.6,118.5h-0.5c-0.1,0-0.3,0.1-0.3,0.3v2.2c-0.9-1.5-2.6-2.4-4.4-2.5c-3.1,0.9-4.7,4.4-3.7,7.5
	c0.6,1.8,2,3.2,3.7,4c1.8,0,3.4-1,4.4-2.5v2c0,1.3-1.7,3.1-4.3,3.1h-0.2c-0.1,0-0.3,0.1-0.3,0.3v0.5c0,0.1,0.1,0.3,0.3,0.3h0.2
	c3.3,0,5.3-2.4,5.3-4.1V119v-0.2c0-0.1,0-0.1-0.1-0.2C225.7,118.5,225.6,118.5,225.6,118.5z M220.5,129c-2.7,0.3-5-1.7-5.3-4.3
	c-0.3-2.7,1.7-5,4.3-5.3s5,1.7,5.3,4.3c0,0.2,0,0.3,0,0.5C225,126.7,223,128.9,220.5,129z"/>
<path class="st0" d="M231.1,118.4h0.5c0.1,0,0.3,0.1,0.3,0.3v11c0,0.1-0.1,0.3-0.3,0.3h-0.5c-0.1,0-0.3-0.1-0.3-0.3v-11
	C230.8,118.6,230.9,118.4,231.1,118.4z"/>
<path class="st0" d="M196.7,113.6h0.5c0.1,0,0.3,0.1,0.3,0.3v15.9c0,0.1-0.1,0.3-0.3,0.3h-0.5c-0.1,0-0.3-0.1-0.3-0.3v-15.9
	C196.5,113.7,196.6,113.6,196.7,113.6z"/>
<path class="st0" d="M231.1,115.9h0.5c0.1,0,0.3,0.1,0.3,0.3v0.5c0,0.1-0.1,0.3-0.3,0.3h-0.5c-0.1,0-0.3-0.1-0.3-0.3v-0.5
	C230.8,116,230.9,115.9,231.1,115.9z"/>
<path class="st0" d="M206.9,118.4c-3.2-0.3-6,2.1-6.3,5.3c-0.3,3.2,2.1,6,5.3,6.3c3.2,0.3,6-2.1,6.3-5.3c0-0.2,0-0.3,0-0.5
	C212.3,121.2,210,118.6,206.9,118.4z M206.9,129c-2.7,0.3-5-1.7-5.3-4.3c-0.3-2.7,1.7-5,4.3-5.3s5,1.7,5.3,4.3c0,0.2,0,0.3,0,0.5
	C211.4,126.7,209.4,128.9,206.9,129z"/>
<path class="st0" d="M245.5,118.4H245c-0.1,0-0.3,0.1-0.3,0.3v2.1c-0.8-1.4-2.3-2.3-3.9-2.3c-2.8,0-5,2.6-5,5.8s2.3,5.8,5,5.8
	c1.6-0.1,3.1-0.9,3.9-2.3v2.1c0,0.1,0.1,0.3,0.3,0.3h0.5c0.1,0,0.2-0.1,0.3-0.3v-11C245.8,118.6,245.7,118.5,245.5,118.4
	C245.5,118.4,245.5,118.4,245.5,118.4z M240.9,129c-2.3,0-4.1-2.2-4.1-4.8s1.8-4.8,4.1-4.8s3.9,2.1,3.9,4.8S243.1,129,240.9,129
	L240.9,129z"/>
<path class="st0" d="M307.1,118.5h-0.5c-0.1,0-0.3,0.1-0.3,0.3v7c-0.3,2.1-2.1,3.5-4.2,3.3c-1.7-0.2-3-1.6-3.3-3.3V119v-0.2
	c0-0.1,0-0.1-0.1-0.2c0-0.1-0.1-0.1-0.2-0.1h-0.5c-0.1,0-0.3,0.1-0.3,0.3v7c0.2,2.6,2.5,4.5,5.1,4.3c2.3-0.2,4.1-2,4.3-4.3V119v-0.2
	C307.2,118.7,307.2,118.6,307.1,118.5C307.2,118.5,307.1,118.5,307.1,118.5z"/>
<path class="st0" d="M284.8,118.4h-0.5c-0.1,0-0.3,0.1-0.3,0.3v2.1c-0.8-1.4-2.3-2.3-3.9-2.3c-2.8,0-5,2.6-5,5.8s2.3,5.8,5,5.8
	c1.6-0.1,3.1-0.9,3.9-2.3v2.1c0,0.1,0.1,0.3,0.3,0.3h0.5c0.1,0,0.3-0.1,0.3-0.3v-11C285.1,118.6,285,118.5,284.8,118.4
	C284.8,118.4,284.8,118.4,284.8,118.4z M280.2,129c-2.3,0-4.1-2.2-4.1-4.8s1.8-4.8,4.1-4.8s3.9,2.1,3.9,4.8S282.3,129,280.2,129z"/>
<path class="st0" d="M294.7,118.4h-3.2V116c0-0.1-0.1-0.3-0.3-0.3h-0.5c-0.1,0-0.2,0.1-0.3,0.3v2.4h-1.8c-0.1,0-0.3,0.1-0.3,0.3v0.5
	c0,0.1,0.1,0.3,0.3,0.3h1.7v7.4c0,2,1.5,3.1,4,3.1h0.2c0.1,0,0.3-0.1,0.3-0.3v-0.5c0-0.1-0.1-0.3-0.3-0.3h-0.2c-1.4,0-3-0.4-3-2.2
	v-7.4h3.3c0.1,0,0.3-0.1,0.3-0.3v-0.5C295,118.6,294.9,118.4,294.7,118.4C294.7,118.4,294.7,118.4,294.7,118.4z"/>
<path class="st0" d="M266.7,118.4c-1.5,0-2.8,0.7-3.7,1.9v-1.6c0-0.1-0.1-0.3-0.3-0.3h-0.5c-0.1,0-0.3,0.1-0.3,0.3v11
	c0,0.1,0.1,0.3,0.3,0.3h0.5c0.1,0,0.2-0.1,0.3-0.3v-6.4c-0.1-2,1.4-3.8,3.4-3.9s3.8,1.4,3.9,3.4c0,0.2,0,0.4,0,0.5v6.2v0.2
	c0,0.1,0.1,0.2,0.3,0.2h0.4c0.1,0,0.1,0,0.2-0.1c0-0.1,0.1-0.1,0.1-0.2v-6.4C271.3,120.7,269.3,118.5,266.7,118.4z"/>
</svg>
