<?xml version="1.0" encoding="utf-8"?>
<!-- Generator: Adobe Illustrator 25.2.0, SVG Export Plug-In . SVG Version: 6.00 Build 0)  -->
<svg version="1.1" id="Layer_1" xmlns="http://www.w3.org/2000/svg" xmlns:xlink="http://www.w3.org/1999/xlink" x="0px" y="0px"
	 viewBox="0 0 530 530" style="enable-background:new 0 0 530 530;" xml:space="preserve">
<style type="text/css">
	.st0{fill:#2B561F;}
</style>
<path class="st0" d="M508.9,72c-7.3-22.9-17.1-39.2-17.5-39.9c-1.6-2.7-4.9-4-8-3.4c-0.8,0.2-19.4,4.5-40.9,15.2
	c-29,14.5-49.2,33.8-58.6,55.9c-7.8,18.4-8.9,40.8-3.4,65.7c-11.7-13.1-24.9-24.6-39.3-34.2c-4.4-8.7-16-30-34.2-52.4
	c-6-7.4-17.5,1.9-11.4,9.3c12.2,15.1,21.4,29.9,27.2,40l-67.2-13.1L191.9,28c6.2,0.1,12.4,0.7,18.6,1.9c19.6,3.8,39,13.8,57.6,29.7
	c7.3,6.2,16.8-5.1,9.6-11.2c-20.6-17.5-42.2-28.6-64.3-32.9c-33.8-6.6-73.2,2.1-114,25.1C69,57.7,48.6,76.6,47.8,77.4
	c-2.7,2.5-3.2,7.2-0.9,10.1c3,6.1,14.3,28.2,33.1,51.9c11.1,14,22.8,26,34.9,35.8c-3.4,2.9-6.8,5.9-10,9.1
	c-17.3,16.9-30.5,36.8-39.2,58.6c-7.7,19.3-11.8,40-12,61.3c-0.4,34.9,9.7,68.6,29.3,97.4c19.1,28.1,45.7,49.7,77.1,62.5
	c8.8,3.6,14.3-10.1,5.5-13.7c-11.4-4.6-22-10.5-31.9-17.5c1.3-7,4.2-32.1-12.5-58.2c-2.3-3.6,4.7-17.9,8.8-26.5
	c4.3-8.8,8.8-17.9,10.8-26.5c2.2-9.1-0.3-16.7-7.2-22.1c-5.1-3.9-11.7-6-17.5-7.8c-3.8-1.2-8.1-2.5-9.6-3.8
	c-3.2-2.7-8.3-12.4-12.5-20.3c-4.6-8.7-9-17-13.5-22.2c10.1-23.9,26.3-45.1,46.6-61.3c18.5,12.6,39.7,21.3,62.1,23.1
	c-26.1,20.2-34.5,46-22.4,70.8c14.1,28.9,43,24.3,68.6,20.2c4.4-0.7,9-1.4,13.4-2c1.6-0.2,2.1,0.2,2.5,0.5c5.6,5,5.4,28.7,5.3,46.1
	c-0.2,24-0.3,46.7,8.6,58.3c4.6,5.9,11,9,18.5,9c4.5,0,9.4-1.1,14.6-3.3c22.2-9.5,45.4-38.2,41.8-60.9c-3.1-19.8-5.1-32.9-0.3-43.5
	c4.4-9.8,15.2-18.8,36.4-30.4c2.5,11.4,3.8,23.3,3.7,35.5c-0.5,41.6-17.1,80.5-46.8,109.6C299.7,450,253,466,206.8,460.9
	c-9.4-1-11,13.6-1.6,14.7c50.6,5.6,101.7-12,138-47.6c32.5-31.8,50.7-74.4,51.2-120c0.7-60.4-30.3-113.8-77.5-144.7
	c9.7-6.9,17-13,21-16.4c17.2,12.3,32.4,27.5,45.1,45.2c30.5,42.5,42.5,94.3,34,145.9c-17.6,106.5-118.5,178.8-225,161.2
	c-51.6-8.5-96.8-36.6-127.2-79.1c-30.5-42.5-42.5-94.3-34-145.9c1.5-9.3-13-11.7-14.5-2.4c-9.2,55.5,3.8,111.2,36.6,156.9
	c32.8,45.7,81.3,75.9,136.8,85.1c11.6,1.9,23.2,2.9,34.8,2.9c43.6,0,86-13.5,122.2-39.4c45.7-32.8,75.9-81.3,85.1-136.8
	c6.7-40.6,1.5-81.4-14.6-118.3c7.4-2.2,20.1-6.5,34-13.4c29-14.5,49.2-33.8,58.6-55.9C519,130.8,518.8,102.8,508.9,72z M80.9,274.7
	c5.5,10.4,10.7,20.2,16.1,24.7c3.8,3.2,9.1,4.8,14.8,6.6c14.4,4.4,16.1,6.6,14.7,12.3c-1.7,7-5.8,15.4-9.7,23.5
	c-7.6,15.6-14.8,30.3-8,40.9c9.7,15.1,11.3,29.9,11.2,39.1c-43.9-39.6-61.8-102.2-45.4-159C76.6,266.6,78.9,270.9,80.9,274.7z
	 M437.7,129.8l-21-50.8c10.2-9.5,22-16.7,32.1-21.8c8.6-4.3,16.8-7.5,23.3-9.8L437.7,129.8z M485.8,53.2c2.9,6.3,6.3,14.4,9.2,23.6
	c3.2,10.1,6.1,22.5,6.7,35.6l-49.1,20.3L485.8,53.2z M397.6,105.5c2.2-5.1,5-9.9,8.2-14.3l23.9,57.8l-21.4,51.2
	c-3-6.4-6.6-14.8-9.6-24.3C392.7,156.9,387.6,129.2,397.6,105.5z M444.8,195.4c-8.3,4.1-16.1,7.3-22.6,9.6l22.2-53.1l56.6-23.3
	c-0.8,6.3-2.4,12.6-4.9,18.6C486.1,170.8,462.7,186.5,444.8,195.4z M178.9,191.2c-2.6-0.5-5.2-1.1-7.7-1.8l81.6-59.8l67.2,13.1
	C295.5,161.9,236,202.4,178.9,191.2z M104.3,145.1c-17.5-18.8-30.2-38.9-37.6-51.8l85.5,16.7L104.3,145.1z M119.4,46.7l35.8,48.8
	L69.1,78.7C80,70.2,97.9,57.3,119.4,46.7z M176.5,99.7l-43.4-59.2c13-5.3,26.9-9.5,41.2-11.4l60,81.9L176.5,99.7z M172,113.8
	l61.2,11.9l-78.5,57.5c-14.8-6.8-28.1-16.7-39.8-27.6L172,113.8z M372.1,257.8c-26.6,14.2-39.6,25.3-45.8,38.9
	c-6.6,14.6-4.2,30.2-0.8,51.9c2,12.8-13.2,36.5-33.1,45.1c-7.4,3.1-12.6,2.8-15.6-1.1c-5.9-7.6-5.7-30.7-5.6-49.2
	c0.2-25.7,0.3-47.8-10.3-57.2c-3.8-3.4-8.7-4.8-14.1-4.2c-4.6,0.6-9.3,1.3-13.9,2.1c-27.1,4.3-44.2,6-53-12.1
	c-14.3-29.4,14.7-51.2,27.8-59.2c2.7-1.6,5.2-3.5,7.5-5.7c31.7-3.8,61.7-17.4,88.4-34.5C335.7,191.5,360.3,221.8,372.1,257.8z"/>
</svg>
