<?xml version="1.0" encoding="utf-8"?>
<!-- Generator: Adobe Illustrator 25.2.0, SVG Export Plug-In . SVG Version: 6.00 Build 0)  -->
<svg version="1.1" id="Capa_1" xmlns="http://www.w3.org/2000/svg" xmlns:xlink="http://www.w3.org/1999/xlink" x="0px" y="0px"
	 viewBox="0 0 530 530" style="enable-background:new 0 0 530 530;" xml:space="preserve">
<style type="text/css">
	.st0{fill:#2B561F;}
</style>
<g>
	<path class="st0" d="M377.2,37.1c-43.8,0-85,20-112.2,54c-27.2-34-68.4-54-112.2-54C73.5,37.1,9,101.6,9,180.8
		c0,36.2,13.5,75.2,40,115.9c21,32.1,50.1,65.4,86.6,99c61.9,56.9,124.8,95.7,125.4,96.1c1.2,0.7,2.6,1.1,3.9,1.1
		c1.4,0,2.7-0.4,3.9-1.1c0.6-0.4,63.5-39.1,125.4-96.1c36.5-33.6,65.7-66.9,86.6-99c26.6-40.7,40-79.7,40-115.9
		C521,101.6,456.5,37.1,377.2,37.1L377.2,37.1z M468.5,288.5c-20.2,31-48.5,63.4-84.1,96.1c-52.1,47.9-104.8,82.7-119.4,92
		c-14.5-9.3-67.1-44-119.2-91.8c-35.6-32.7-63.9-65.1-84.2-96.1C36.7,250.3,24,214.1,24,180.8c0-71,57.8-128.8,128.8-128.8
		c42.3,0,82,20.9,106.1,55.8c1.4,2,3.7,3.2,6.2,3.2s4.8-1.2,6.2-3.2c24.1-34.9,63.7-55.8,106.1-55.8c71,0,128.8,57.8,128.8,128.8
		C506,214.1,493.4,250.3,468.5,288.5L468.5,288.5z"/>
	<path class="st0" d="M382.4,110.5c-21.8-9.8-51.1,39.5-64.9,70.2c-1.2,2.7-2.4,5.5-3.6,8.2c-1.6,3.8,0.2,8.2,4,9.8
		c3.8,1.6,8.2-0.2,9.8-4c1.1-2.6,2.2-5.2,3.4-7.8c8.3-18.3,18-35,27.4-47c9.7-12.2,15.7-15.4,17.6-15.6c1,1.6,2.7,8.2-0.1,23.5
		c-2.7,15-8.8,33.3-17.1,51.6c-6.6,14.6-14.1,28.2-21.7,39.1c-17.6-20.3-43.5-33.1-72.3-33.1c-14.2,0-27.7,3.1-39.8,8.7
		c-3.3-10.8-7.6-22.2-12.7-33.4c-13.9-30.7-43.1-80-64.9-70.2c-21.8,9.8-4.2,64.4,9.7,95.1c7.8,17.3,17,33.4,26,45.7
		c-8.9,14.5-14,31.6-14,49.8c0,52.8,42.9,95.7,95.7,95.7s95.7-42.9,95.7-95.7c0-18.2-5.1-35.3-14-49.8c9.1-12.4,18.3-28.5,26-45.7
		C386.6,174.9,404.2,120.3,382.4,110.5L382.4,110.5z M171,199.4c-8.3-18.3-14.3-36.7-17.1-51.6c-2.8-15.3-1.1-22-0.1-23.5
		c1.8,0.3,7.9,3.4,17.6,15.6c9.4,11.9,19.2,28.6,27.4,47c5.3,11.8,9.8,23.7,13,34.8c-7.1,4.8-13.6,10.5-19.2,17
		C185.1,227.6,177.5,214,171,199.4z M247.5,349.5c-0.1-0.1-0.2-0.3,0-0.5c0.1-0.3,0.3-0.3,0.5-0.3h34.2c0.1,0,0.3,0,0.5,0.3
		s0,0.4,0,0.5L265,375.7L247.5,349.5z M280,380.3l15-22.6c3.2-4.8,3.5-10.9,0.8-15.9s-7.9-8.2-13.7-8.2h-34.2
		c-5.7,0-11,3.1-13.7,8.2s-2.4,11.2,0.8,15.9l15,22.6c-37.4-7-65.7-39.9-65.7-79.3c0-44.5,36.2-80.7,80.7-80.7s80.7,36.2,80.7,80.7
		C345.7,340.4,317.3,373.3,280,380.3L280,380.3z"/>
	<path class="st0" d="M216.9,293.6c-4.1,0-7.5,3.4-7.5,7.5v8c0,4.1,3.4,7.5,7.5,7.5s7.5-3.4,7.5-7.5v-8
		C224.4,296.9,221,293.6,216.9,293.6z"/>
	<path class="st0" d="M313.1,293.6c-4.1,0-7.5,3.4-7.5,7.5v8c0,4.1,3.4,7.5,7.5,7.5s7.5-3.4,7.5-7.5v-8
		C320.6,296.9,317.2,293.6,313.1,293.6z"/>
</g>
</svg>
