<?xml version="1.0" encoding="utf-8"?>
<!-- Generator: Adobe Illustrator 25.2.0, SVG Export Plug-In . SVG Version: 6.00 Build 0)  -->
<svg version="1.1" id="Capa_1" xmlns="http://www.w3.org/2000/svg" xmlns:xlink="http://www.w3.org/1999/xlink" x="0px" y="0px"
	 viewBox="0 0 530 530" style="enable-background:new 0 0 530 530;" xml:space="preserve">
<style type="text/css">
	.st0{fill:#2B561F;}
</style>
<g>
	<g>
		<path class="st0" d="M481,330.4c-0.9-1.9-2.5-3.3-4.5-4c-3.4-1.1-83.8-26-137.6-0.7c-32.8,15.4-46.3,59.1-42.3,82.5
			c-8.6,6.1-16,11.7-22,16.5c2.7-13.3,5.3-27.9,7.6-43.5c4.2-28.8,6.6-57.6,7.4-86.3c0.7-3.2,5.8-24.7,24.4-44.7
			c4.8,4.1,11.3,7.7,18.5,10.3c7.1,2.6,14.2,3.8,20.9,3.8c7.1,0,13.9-1.4,20-4.3c36.9-17.4,58.8-70.4,59.7-72.6
			c0.8-1.9,0.7-4.1-0.2-6c-0.9-1.9-2.5-3.3-4.5-4c-2.3-0.7-57.1-17.7-94-0.4c-25.1,11.8-33.3,44.8-29.2,60.5
			c-6.4,6.5-11.4,13.1-15.5,19.4c-0.2-6.2-0.4-12.5-0.7-18.7c-1.7-32.9-5.6-65.3-11.8-97.1c14.1-9.2,30.6-34.5,24.1-59.2
			c-10.4-39.5-58.5-70.6-60.6-71.9c-1.8-1.1-3.9-1.5-5.9-0.9c-2,0.5-3.7,1.9-4.7,3.7c-1.1,2.1-27.8,52.9-17.5,92.4
			c6.5,24.6,33.1,38.6,50,39.7c5.7,29.2,9.4,59.1,11.1,89.4c-5.8-8.2-12-15.5-18.2-21.9c4.8-16,0-47.3-22.3-61.4
			c-34.5-21.8-91-11.7-93.4-11.2c-2.1,0.4-3.9,1.6-5,3.4c-1.1,1.8-1.4,3.9-0.9,5.9c0.6,2.3,15.8,57.7,50.3,79.4
			c8.1,5.1,17.3,7.2,26.3,7.2c13.9,0,27.4-4.9,35.8-11.1c10.3,10.9,20.4,24.4,28.5,40.7c0.4,30.6-1.2,61.5-4.8,92.3
			c-3.7-5.3-8.1-10.3-13.2-15.1c3.7-24.2-17.9-73.8-57.9-85.7c-26-7.7-58.6-6.1-96.9,4.8c-28.2,8-48.7,18-49.6,18.4
			c-1.9,0.9-3.3,2.6-3.9,4.6c-0.6,2-0.3,4.2,0.7,6c0.5,0.8,12.2,20.4,31.6,42.5c26.3,30,52.8,49.1,78.7,56.8
			c6.5,1.9,13,2.7,19.2,2.7c18,0,33.6-6.7,42.6-11.6c12.1-6.5,22.5-15.3,28.8-23.9c7.7,7.9,13.5,17.2,16.2,28.1
			c-3.3,21.2-7.2,40.7-11.3,58c0,0.1-0.1,0.2-0.1,0.3c-7.6,31.9-15.6,55.9-20.2,67c-1.6,3.8,0.3,8.2,4.1,9.8
			c0.9,0.4,1.9,0.6,2.8,0.6c3,0,5.8-1.8,6.9-4.7c0.6-1.5,10.5-26,20.5-67.3c4.2-3.8,16-14.2,33.8-26.8c11.1,13.3,36.9,26.5,63,26.5
			c9.5,0,19.1-1.8,27.9-5.9c53.8-25.3,85.9-103.1,87.3-106.4C482,334.5,481.9,332.3,481,330.4z M340.7,190.7
			c10.1-4.7,22.2-6.4,33.9-6.4c16.2,0,31.8,3,40.9,5.2c-7.2,14.6-24.7,45.7-48.6,56.9c-11,5.2-23.1,2.2-29.4-0.1
			c-5.2-1.9-9.4-4.3-12.4-6.5c2.7-2.2,5.6-4.3,8.8-6.3c3.5-2.2,4.5-6.9,2.2-10.4c-2.2-3.5-6.9-4.5-10.4-2.2c-2.3,1.5-4.4,3-6.5,4.5
			C320.5,214.2,327,197.1,340.7,190.7z M192.8,185.8c0.3,0.1,20.6,8.7,42.6,28.4c-9.5,5.6-29.2,10.6-43.1,1.8
			c-22.4-14.1-35.9-47.1-41.3-62.5c16.2-1.8,51.8-3.8,74.2,10.3c12.5,7.9,17,24.9,17,36.3c-22.4-19.2-42.3-27.7-43.8-28.2
			c-3.8-1.6-8.2,0.2-9.8,4.1C187.2,179.8,189,184.2,192.8,185.8z M273.7,124.9c-4.3-19.4-9.4-38.5-15.4-57.2
			c-1.3-3.9-5.5-6.1-9.4-4.9c-3.9,1.3-6.1,5.5-4.9,9.4c6,18.8,11.1,37.9,15.4,57.3c-10.8-2.6-28.2-12.4-32.3-28
			c-6.7-25.6,5.9-59,12.5-73.8c13.1,9.7,40.4,32.6,47.1,58.2C290.7,100.7,281.6,116.8,273.7,124.9z M158.6,316
			c22.9,4.6,56.3,13.8,80.2,31.4c-4.4,6.3-13.1,14.2-24.6,20.5c-10.1,5.5-30,13.7-50.4,7.7c-45.5-13.5-84.2-66.2-97.1-85.4
			c21.3-9.1,82.3-32.3,127.9-18.8c20.4,6,32.6,23.8,38.1,33.9c5.1,9.4,8,18.6,9,25.8c-3.1-2-6.4-4-9.8-5.9
			c-18.9-10.4-42.6-18.4-70.5-24c-4.1-0.8-8,1.8-8.8,5.9C151.9,311.3,154.6,315.2,158.6,316z M387.5,429.3
			c-6.8,3.2-14.2,4.5-21.6,4.5c-21.2,0-42.4-10.9-50.6-20c26.1-17.2,61.4-36.6,101.9-48.4c4-1.2,6.3-5.3,5.1-9.3
			c-1.2-4-5.3-6.3-9.3-5.1c-40.5,11.8-75.6,30.5-102.2,47.7c0.4-18.1,11-48.3,34.5-59.3c15.6-7.3,34.1-9.8,52.2-9.8
			c27.4,0,53.6,5.7,66.4,9C454.5,358.4,426.8,410.8,387.5,429.3z"/>
	</g>
</g>
<g>
	<g>
		<path class="st0" d="M129,296.3c-5.4-0.6-8.5-0.7-8.7-0.8c-4.1-0.2-7.7,2.9-7.9,7c-0.2,4.1,2.9,7.7,7,7.9c0,0,3,0.2,8,0.7
			c0.3,0,0.5,0,0.8,0c3.8,0,7-2.9,7.5-6.7C136.1,300.5,133.1,296.8,129,296.3z"/>
	</g>
</g>
<g>
	<g>
		<path class="st0" d="M373.9,209.3c-1.1-4-5.2-6.4-9.2-5.3c-3.1,0.8-6.2,1.8-9.2,2.8c-3.9,1.3-6,5.6-4.7,9.5c1.1,3.1,4,5.1,7.1,5.1
			c0.8,0,1.6-0.1,2.4-0.4c2.7-0.9,5.5-1.7,8.3-2.5C372.6,217.4,375,213.3,373.9,209.3z"/>
	</g>
</g>
</svg>
